<svg xmlns="http://www.w3.org/2000/svg" viewBox="0 0 254.19 254.26"><defs><style>.cls-1{fill:#e2e0e0;}.cls-2{fill:#db5453;}.cls-3{fill:#474747;opacity:0.22;}</style></defs><title>ring</title><g id="Lager_1" data-name="Lager 1"><path class="cls-1" d="M275.92,142.44a126.15,126.15,0,0,0-12.13-48.21,127.53,127.53,0,0,0-67.92-63.59h0A127.07,127.07,0,0,0,22.05,142.41q-.16,3.18-.16,6.4a127.1,127.1,0,1,0,254.19,0Q276.08,145.6,275.92,142.44Zm-87.6,80.47a83.87,83.87,0,1,1-1.52-149,84.28,84.28,0,0,1,32.89,29.75,83.87,83.87,0,0,1-31.37,119.23Z" transform="translate(-21.89 -21.72)"/><path class="cls-2" d="M195.86,30.65,186.8,73.93a84,84,0,0,0-75.73,0l-9.26-43.21a127.49,127.49,0,0,1,94.05-.12Z" transform="translate(-21.89 -21.72)"/><path class="cls-2" d="M197.61,266.28a127.57,127.57,0,0,1-97.73-.2L109,222.55a84,84,0,0,0,79.33.36Z" transform="translate(-21.89 -21.72)"/><path class="cls-2" d="M65.11,148.81a83.68,83.68,0,0,0,8.45,36.75l-43.1,9.22a126.83,126.83,0,0,1-8.57-46q0-3.23.16-6.4a126.43,126.43,0,0,1,8.47-39.7l4.39.92,38.82,8.13A83.4,83.4,0,0,0,65.11,148.81Z" transform="translate(-21.89 -21.72)"/><path class="cls-2" d="M276.08,148.81a127,127,0,0,1-5.62,37.52l-42.6-8.93a84,84,0,0,0-8.17-73.72l38.68-8.29,5.42-1.16a126.15,126.15,0,0,1,12.13,48.21Q276.08,145.61,276.08,148.81Z" transform="translate(-21.89 -21.72)"/></g><g id="Lager_2" data-name="Lager 2"><path class="cls-3" d="M275.08,149c0,70.11-56.65,126.94-126.52,126.94S22.05,219.15,22.05,149a127.34,127.34,0,0,1,1.62-20.33q-.17,3.14-.16,6.32a125.66,125.66,0,0,0,8.43,45.39c12.28,31.76,37.31,41.84,68.55,55a125.08,125.08,0,0,0,96.16.2c34.15-14.2,60.44-27.74,71.44-63.53a125.81,125.81,0,0,0,5.53-37c0-2.11,0-4.21-.15-6.29A128.14,128.14,0,0,1,275.08,149Z" transform="translate(-21.89 -21.72)"/></g></svg>